<?xml version="1.0" standalone="no"?>
<!DOCTYPE svg PUBLIC "-//W3C//DTD SVG 20010904//EN"
 "http://www.w3.org/TR/2001/REC-SVG-20010904/DTD/svg10.dtd">
<svg version="1.0" xmlns="http://www.w3.org/2000/svg"
 width="1024.000000pt" height="600.000000pt" viewBox="0 0 1024.000000 600.000000"
 preserveAspectRatio="xMidYMid meet">
<metadata>
Created by potrace 1.16, written by Peter Selinger 2001-2019
</metadata>
<g transform="translate(0.000000,600.000000) scale(0.100000,-0.100000)"
fill="#000000" stroke="none">
<path d="M2745 5924 c-139 -106 -278 -246 -273 -276 2 -12 13 -27 25 -33 16
-9 19 -15 11 -29 -5 -9 -7 -24 -4 -33 4 -9 -6 -58 -20 -110 -23 -81 -31 -96
-56 -109 -16 -8 -27 -18 -24 -22 2 -4 -20 -21 -50 -36 -38 -20 -62 -41 -77
-67 -12 -22 -30 -39 -39 -39 -11 0 -15 -5 -12 -14 3 -8 -3 -17 -15 -21 -31 -9
-81 -72 -81 -102 0 -20 -4 -24 -20 -20 -24 6 -27 -15 -5 -33 19 -16 19 -29 -1
-51 -23 -26 -12 -35 40 -34 25 1 44 -1 43 -4 -1 -3 4 -16 11 -28 13 -23 42
-32 42 -13 0 6 8 10 19 10 10 0 24 7 31 15 7 9 29 15 51 15 28 0 39 -4 39 -15
0 -8 -4 -15 -10 -15 -19 0 -10 -19 34 -65 l44 -48 35 29 c20 15 34 30 31 33
-2 3 -10 -1 -16 -7 -17 -17 -43 -15 -60 6 -12 13 -14 40 -10 130 l4 112 27 1
c24 1 23 2 -8 10 -18 6 -36 7 -40 4 -3 -4 -8 -34 -11 -68 l-5 -62 -65 0 c-81
1 -114 9 -140 37 -28 30 -25 65 9 99 24 24 38 29 75 29 l46 0 -6 43 c-6 40 -4
46 25 70 55 46 124 53 189 18 28 -15 28 -17 -5 -46 -35 -29 -23 -45 16 -22 45
26 95 22 120 -9 21 -27 20 -44 -3 -44 -8 0 -24 -9 -37 -20 l-24 -19 66 6 c91
8 109 -3 109 -67 0 -30 -6 -54 -15 -64 -26 -26 -95 -39 -172 -32 -65 5 -73 4
-73 -12 0 -15 10 -16 107 -11 119 6 145 15 173 62 37 60 19 127 -39 150 -21 9
-45 27 -54 41 -9 14 -29 36 -44 50 l-27 26 39 41 c22 22 63 52 90 66 81 42
173 143 227 253 53 106 75 197 80 330 l3 85 -110 3 -110 2 -100 -76z"/>
<path d="M3720 5962 c0 -21 -4 -42 -8 -47 -19 -22 -34 -94 -27 -122 5 -15 8
-31 7 -35 -3 -14 65 -159 74 -159 5 1 9 -2 9 -6 1 -35 102 -76 216 -87 9 -1
24 -10 33 -19 11 -11 26 -14 45 -11 15 3 45 1 67 -5 40 -10 217 -26 267 -23
35 2 94 -29 115 -60 9 -13 17 -39 18 -58 1 -19 3 -38 3 -42 2 -11 144 4 172
18 14 7 61 44 105 81 43 38 99 80 124 95 25 14 57 39 72 54 15 16 62 61 106
99 80 71 142 151 142 182 0 10 16 55 34 101 l34 82 -804 0 -804 0 0 -38z"/>
<path d="M6811 5719 c-50 -7 -70 -19 -71 -45 0 -5 21 -20 46 -33 45 -21 59
-22 407 -27 230 -3 370 -1 386 5 15 6 55 13 91 15 173 14 184 13 236 -10 51
-22 56 -22 545 -23 272 -1 667 -2 879 -2 318 -1 397 2 455 15 130 29 137 34
88 60 -45 22 -88 28 -206 28 -62 -1 -206 -1 -322 -1 -170 -1 -980 7 -1365 13
-69 1 -94 -3 -130 -21 -40 -19 -53 -21 -115 -13 -38 4 -77 10 -85 13 -35 14
-132 19 -400 23 -157 2 -307 5 -335 7 -27 1 -74 0 -104 -4z"/>
<path d="M5080 5412 c-67 -36 -140 -170 -140 -258 0 -17 7 -48 15 -68 13 -31
20 -36 48 -36 38 1 63 13 111 58 l37 33 11 -31 c13 -38 54 -58 75 -37 43 43
31 181 -18 207 -43 24 -103 1 -84 -30 18 -28 -79 -161 -106 -145 -39 25 39
228 100 260 72 37 143 -3 189 -105 22 -46 26 -71 26 -152 1 -88 -1 -98 -22
-121 -26 -27 -52 -40 -119 -57 -61 -15 -53 -30 15 -30 75 0 140 31 165 80 15
29 17 53 15 135 -3 84 -8 110 -32 163 -29 64 -86 125 -132 142 -41 16 -116 12
-154 -8z"/>
<path d="M286 5105 c-21 -32 -20 -87 2 -114 26 -32 77 -36 145 -11 89 33 73
81 -41 124 -83 32 -86 32 -106 1z"/>
<path d="M8048 5098 c-50 -26 -49 -45 2 -63 3 -1 13 -5 23 -10 10 -4 185 -8
390 -9 319 -1 382 1 441 16 78 19 90 27 73 48 -29 35 -48 37 -472 38 -404 1
-421 0 -457 -20z"/>
<path d="M7730 5070 c-20 -38 63 -180 105 -180 14 0 16 7 11 40 -3 22 -9 58
-12 80 -9 65 -80 105 -104 60z"/>
<path d="M3585 4941 c-79 -28 -110 -47 -139 -86 -76 -100 -92 -226 -42 -330
33 -66 120 -138 189 -156 83 -21 92 -25 91 -41 -2 -17 6 -17 49 0 15 6 27 17
27 24 1 7 9 3 20 -10 15 -19 23 -21 38 -13 16 9 19 7 18 -6 -1 -13 16 -23 59
-38 70 -25 114 -47 171 -86 37 -25 46 -27 95 -20 30 4 60 10 66 14 6 4 28 38
49 75 95 171 189 261 318 306 46 16 -39 61 -245 130 -70 23 -79 24 -156 13
-64 -10 -91 -19 -128 -45 -25 -18 -56 -33 -68 -35 -19 -2 -22 4 -28 48 -9 73
-43 137 -103 193 -82 78 -180 100 -281 63z m250 -71 c-3 -5 3 -11 12 -14 10
-2 4 -4 -12 -3 -41 2 -58 -10 -51 -38 4 -14 0 -28 -9 -35 -8 -7 -15 -19 -15
-26 0 -8 -5 -14 -11 -14 -5 0 -7 -5 -4 -11 4 -6 13 -8 21 -5 8 3 14 2 14 -2 0
-4 11 -12 25 -19 30 -13 33 -3 5 22 -39 35 -18 76 35 70 17 -1 33 2 36 7 11
17 48 -10 56 -40 3 -15 7 -66 7 -113 1 -84 0 -88 -38 -143 -39 -57 -82 -95
-114 -101 -21 -3 -82 53 -82 75 0 38 111 102 122 70 2 -6 18 3 36 20 18 16 37
30 42 30 4 0 6 9 3 20 -6 23 -23 27 -23 5 0 -8 -4 -15 -9 -15 -5 0 -12 -9 -16
-20 -5 -16 -14 -19 -44 -18 -26 1 -50 -7 -77 -25 -21 -15 -47 -27 -56 -27 -32
0 -20 -39 26 -85 51 -50 47 -55 -43 -55 -61 0 -121 16 -121 31 0 5 -7 9 -15 9
-21 0 -29 24 -16 48 7 13 7 22 1 24 -5 2 -7 13 -4 26 5 17 14 22 38 22 21 0
36 7 44 21 18 28 5 38 -14 11 -11 -16 -24 -21 -47 -19 -31 2 -32 1 -37 -47 -5
-45 -6 -47 -21 -30 -57 69 -53 174 7 174 12 0 26 5 29 10 11 17 35 11 60 -16
14 -15 25 -23 25 -19 0 5 -8 17 -17 28 -17 18 -17 19 0 32 17 12 17 14 -5 29
-19 14 -20 18 -8 26 18 11 31 4 24 -15 -3 -7 3 -18 13 -24 15 -7 25 -5 46 12
35 29 40 68 10 82 -24 10 -30 29 -13 40 12 8 50 -16 50 -32 0 -21 28 -15 44 9
9 12 16 30 16 40 0 16 22 24 53 19 4 0 7 4 7 10 0 5 5 7 10 4 6 -4 8 -10 5
-15z"/>
<path d="M7113 4918 c1 -74 -22 -248 -35 -262 -5 -6 -8 -3 -8 6 0 29 -37 31
-72 5 -48 -36 -181 -97 -211 -97 -14 0 -28 -4 -31 -9 -3 -4 -24 -8 -46 -8 -22
0 -46 -6 -54 -12 -9 -8 -16 -8 -20 -2 -4 5 -22 7 -41 4 -64 -10 -38 15 38 37
117 34 297 147 297 186 0 7 -17 22 -37 34 l-38 22 35 19 c19 10 31 18 27 19
-4 0 -22 -7 -38 -16 -33 -16 -34 -33 -3 -49 46 -24 47 -26 22 -52 -49 -54
-181 -127 -272 -152 -64 -17 -90 -41 -68 -63 18 -18 158 -14 245 6 79 19 152
54 202 98 l37 31 23 -29 c16 -19 27 -26 34 -19 12 13 44 280 36 306 -9 26 -23
24 -22 -3z"/>
<path d="M5829 4866 c-26 -42 -101 -280 -97 -308 3 -19 15 -25 83 -40 128 -30
305 -79 378 -105 105 -38 105 -38 149 102 56 179 55 201 -2 36 -27 -79 -51
-146 -54 -148 -2 -2 -58 14 -124 37 -66 22 -177 55 -246 73 -70 18 -128 37
-129 42 -1 6 21 22 48 37 43 24 45 27 19 22 -26 -5 -32 -2 -37 16 -4 14 0 29
9 38 11 10 15 30 12 63 -3 45 -1 50 24 60 25 10 32 7 80 -32 29 -24 72 -60 95
-81 36 -32 45 -36 71 -29 15 5 78 14 138 21 60 7 112 16 116 19 9 8 -177 -6
-237 -17 -39 -7 -42 -6 -128 67 -79 69 -108 104 -94 118 7 6 254 -65 367 -106
47 -17 91 -31 100 -31 60 0 -143 78 -360 139 -159 44 -159 44 -181 7z"/>
<path d="M1304 4745 c-72 -32 -107 -81 -112 -155 -6 -78 10 -120 81 -220 33
-47 71 -108 83 -137 13 -28 27 -54 33 -57 5 -4 15 -23 22 -44 23 -72 52 -86
114 -57 47 23 60 70 52 194 -5 64 -3 110 4 128 25 65 37 151 27 197 -8 36 -20
55 -61 92 -87 79 -161 97 -243 59z m201 -56 c86 -62 104 -133 64 -259 -16 -52
-19 -79 -14 -132 7 -67 7 -68 -20 -78 -27 -10 -93 -12 -127 -3 -9 2 -21 17
-27 34 -5 16 -42 75 -80 132 -98 142 -110 219 -45 297 32 37 72 50 145 47 46
-3 65 -10 104 -38z"/>
<path d="M8203 4638 c84 -86 95 -113 68 -167 -12 -22 -32 -48 -44 -56 -13 -8
-30 -26 -37 -40 -11 -21 -109 -95 -125 -95 -3 0 -15 -9 -26 -19 -12 -11 -30
-18 -40 -16 -15 3 -19 -2 -19 -22 0 -19 4 -24 16 -19 8 3 12 2 9 -4 -6 -10 86
28 95 39 3 4 28 21 55 38 28 18 70 50 95 73 68 60 73 64 102 79 41 21 68 49
68 71 0 17 -5 19 -32 15 -30 -4 -36 0 -67 43 -46 63 -120 129 -154 137 -23 6
-18 -2 36 -57z"/>
<path d="M853 4649 c-34 -7 -82 -54 -83 -81 0 -9 12 -26 28 -38 31 -25 84 -23
146 7 30 14 36 22 36 47 0 27 -6 34 -48 52 -32 14 -57 18 -79 13z"/>
<path d="M4666 4624 c-3 -9 -6 -33 -6 -55 0 -42 -6 -48 -24 -23 -10 13 -19 14
-52 5 -95 -25 -209 -142 -289 -292 -37 -70 -34 -91 10 -83 175 30 250 36 385
30 133 -6 236 -19 248 -31 14 -14 -12 -15 -65 -4 -80 18 -401 18 -476 1 -65
-15 -109 -48 -86 -63 8 -5 9 -9 4 -9 -6 0 -11 -9 -11 -20 0 -11 4 -20 9 -20 4
0 5 -6 1 -12 -4 -7 -4 -10 1 -6 4 4 18 -1 31 -11 29 -23 62 -17 150 23 44 20
73 27 114 26 30 -1 68 -1 83 -1 16 0 57 -10 92 -24 81 -30 125 -37 144 -22 12
9 13 9 7 0 -5 -9 -2 -11 8 -7 9 3 13 10 10 15 -3 5 1 9 9 9 15 0 58 46 50 54
-3 2 12 12 33 21 21 9 49 25 61 37 17 16 29 19 57 14 24 -5 59 0 103 13 38 11
102 25 143 32 43 6 78 17 83 25 4 8 18 14 30 15 36 1 -23 17 -173 44 -132 25
-295 80 -332 113 -12 10 -18 30 -18 56 0 81 0 81 -139 125 -138 44 -185 50
-195 25z"/>
<path d="M7744 4606 c-13 -34 92 -164 150 -186 26 -9 57 -8 56 3 0 4 -1 28 -1
55 -1 29 -4 36 -6 20 -6 -38 -15 -35 -41 11 -46 81 -142 140 -158 97z"/>
<path d="M1881 4594 c-21 -15 -23 -22 -17 -63 9 -73 106 -664 108 -666 2 -1
26 -8 53 -14 74 -18 150 -66 236 -148 42 -40 81 -73 88 -73 6 0 19 -4 29 -9
26 -13 312 -62 323 -55 12 7 56 15 86 16 13 0 20 5 16 11 -3 6 -1 7 6 3 6 -4
44 6 84 22 40 17 89 33 110 37 33 6 44 16 77 69 64 99 50 150 -56 202 -110 54
-235 16 -394 -118 -47 -39 -71 -57 -55 -39 53 58 151 130 221 163 115 54 219
38 308 -45 21 -21 44 -37 50 -37 6 1 38 37 71 82 62 83 213 234 265 264 16 10
30 24 30 31 0 16 23 10 -725 184 -357 83 -661 157 -675 164 -24 13 -148 35
-193 35 -12 0 -33 -7 -46 -16z"/>
<path d="M6523 4439 c-100 -31 -161 -109 -97 -125 62 -16 124 14 155 74 8 14
25 37 39 49 l25 22 -30 0 c-16 -1 -58 -9 -92 -20z"/>
<path d="M7210 4439 c-88 -9 -143 -24 -265 -71 -64 -25 -107 -36 -150 -36 -81
-2 -203 -51 -226 -91 l-17 -29 52 -51 53 -52 245 6 c242 6 245 6 251 -14 4
-15 13 -21 32 -21 22 0 25 3 16 14 -18 21 2 59 48 89 45 30 50 41 25 55 -22
12 -13 91 12 109 30 22 69 16 82 -12 21 -46 12 -108 -14 -98 -17 6 -18 -1 -4
-27 5 -10 26 -24 45 -30 69 -23 88 -98 22 -88 -17 3 -52 2 -77 -1 -36 -5 -21
-8 75 -14 72 -4 148 -15 190 -27 41 -12 99 -20 140 -20 64 0 77 -4 137 -39 82
-48 125 -63 173 -59 34 2 36 4 31 29 -3 15 -19 47 -36 72 -16 25 -30 50 -30
56 0 6 -3 11 -8 11 -12 0 -34 59 -28 75 3 8 1 15 -5 15 -6 0 -33 20 -59 43
-29 26 -84 59 -137 82 -48 22 -110 55 -137 74 -27 19 -71 41 -99 48 -56 14
-215 15 -337 2z"/>
<path d="M5814 4315 c-39 -13 -105 -28 -148 -34 -119 -17 -153 -43 -70 -55 80
-11 130 -7 187 15 54 21 117 68 117 88 0 14 -1 14 -86 -14z"/>
<path d="M1861 4263 c-17 -48 -100 -225 -148 -318 -92 -175 -113 -218 -113
-231 0 -8 -4 -14 -8 -14 -9 0 -49 -84 -54 -114 -6 -37 19 -26 36 16 47 112 63
146 87 188 15 25 33 63 40 85 8 22 16 42 19 45 10 10 31 47 59 105 29 58 97
142 112 138 9 -3 1 106 -10 124 -4 9 -11 0 -20 -24z"/>
<path d="M6335 4277 c-25 -15 -134 -131 -163 -174 -12 -17 -22 -44 -22 -60 0
-27 3 -29 43 -32 23 -1 46 -6 50 -10 5 -5 41 4 80 19 85 32 179 56 262 66 l59
7 -58 54 c-31 29 -61 51 -65 49 -15 -10 -78 14 -97 36 -10 12 -13 18 -5 13 9
-5 7 1 -4 19 -19 28 -47 33 -80 13z"/>
<path d="M3836 4262 c-10 -2 -29 -15 -42 -29 -26 -28 -44 -30 -141 -18 -58 7
-64 6 -82 -16 -15 -19 -21 -21 -34 -11 -12 10 -25 5 -73 -31 -67 -50 -203
-189 -254 -260 -42 -58 -41 -85 2 -172 37 -73 30 -66 70 -74 28 -6 42 -1 94
36 77 54 137 80 222 95 59 10 73 17 119 62 81 77 195 158 295 211 79 42 89 50
74 60 -9 7 -14 19 -11 28 11 27 -119 105 -181 110 -16 1 -31 4 -34 7 -3 3 -14
4 -24 2z"/>
<path d="M9229 4216 c-14 -29 -22 -32 -164 -46 -175 -18 -180 -21 -127 -81 25
-28 35 -32 83 -33 30 -1 80 3 112 7 58 8 59 8 55 -15 -3 -21 -10 -24 -95 -34
-109 -14 -127 -19 -120 -38 4 -10 -5 -18 -29 -26 -47 -16 -43 -32 6 -24 38 6
55 -6 30 -21 -5 -3 -7 -12 -4 -19 7 -19 114 -19 114 0 0 18 17 27 26 13 4 -8
3 -9 -4 -5 -7 4 -12 1 -12 -7 0 -11 10 -12 44 -7 70 10 98 47 59 75 -15 11
-12 14 25 26 41 12 57 29 28 29 -22 0 -26 14 -15 51 5 19 12 53 14 76 4 52 11
63 34 63 21 0 44 23 34 33 -3 4 -24 7 -45 7 -31 0 -41 -5 -49 -24z"/>
<path d="M5390 4199 c-87 -15 -150 -38 -144 -54 7 -18 89 -44 131 -42 25 2 40
13 73 55 47 59 48 58 -60 41z"/>
<path d="M4027 4050 c-100 -51 -216 -130 -291 -201 l-60 -56 70 -13 c38 -6
105 -27 149 -46 71 -29 149 -46 157 -34 2 3 22 64 46 135 27 83 40 137 36 149
-5 13 -4 17 4 12 6 -3 13 3 17 15 5 14 0 27 -14 40 -12 11 -21 24 -21 29 0 15
-10 12 -93 -30z"/>
<path d="M4186 4025 c-10 -11 -14 -25 -10 -37 4 -13 2 -18 -4 -14 -9 6 -72
-154 -87 -223 -6 -27 -4 -33 6 -28 55 23 210 96 211 98 1 2 -2 28 -6 58 -8 64
-24 96 -64 134 -27 26 -30 27 -46 12z"/>
<path d="M5667 3956 c-9 -10 -17 -26 -17 -36 0 -22 55 -56 65 -40 3 6 40 10
82 10 47 0 109 9 167 24 50 13 116 28 146 34 l55 9 -76 2 c-42 0 -150 4 -240
7 -148 6 -166 5 -182 -10z"/>
<path d="M6264 3951 c4 -5 25 -12 48 -16 23 -4 69 -16 101 -27 l60 -19 51 22
c77 34 182 33 259 -3 31 -15 57 -25 57 -23 0 2 -14 20 -31 40 l-31 35 -260 0
c-154 0 -257 -4 -254 -9z"/>
<path d="M6832 3918 c32 -39 40 -43 87 -46 42 -3 51 -6 51 -22 0 -15 7 -18 33
-17 27 2 33 -2 35 -21 4 -28 -14 -53 -34 -45 -20 8 -7 -26 23 -56 17 -18 22
-20 17 -7 -6 15 -3 17 17 11 18 -5 20 -4 9 4 -12 8 -12 13 4 30 20 22 36 19
36 -5 0 -8 -4 -13 -9 -10 -5 3 -11 -10 -13 -29 -2 -19 0 -35 5 -35 4 0 5 -5 2
-10 -3 -6 1 -13 9 -16 9 -3 16 -10 16 -16 0 -5 -4 -6 -10 -3 -5 3 -10 3 -10
-2 0 -9 58 -38 75 -38 6 0 18 -8 28 -18 10 -10 24 -17 30 -15 7 2 23 -6 37
-19 26 -26 27 -26 -60 14 -25 11 -58 23 -75 26 -16 4 -25 4 -18 1 7 -3 15 -21
19 -39 3 -19 12 -36 20 -39 8 -3 14 -12 14 -21 0 -9 9 -15 21 -15 18 0 19 -2
9 -15 -10 -12 -10 -18 1 -31 13 -16 28 -41 50 -81 14 -27 31 -30 28 -5 -1 9
-1 23 0 30 1 14 41 17 41 2 0 -6 -5 -9 -11 -8 -21 5 -21 -23 0 -29 11 -3 18
-9 15 -14 -3 -5 -10 -7 -15 -4 -11 8 -23 -20 -14 -34 4 -7 16 -5 33 7 14 9 23
11 19 5 -13 -20 24 -16 40 5 14 16 14 16 9 0 -4 -15 1 -18 34 -16 22 1 40 3
40 5 0 2 -25 15 -55 28 -30 14 -55 29 -55 34 0 5 32 -6 71 -25 39 -19 74 -33
76 -30 3 3 -2 26 -10 51 -9 25 -12 43 -6 40 5 -4 14 -26 20 -50 l11 -44 21 20
c11 10 31 19 43 19 22 0 51 25 37 32 -4 3 -3 4 4 2 14 -3 45 30 36 39 -3 4 5
7 18 8 23 0 23 1 4 10 -17 8 -16 9 6 4 25 -4 59 18 47 30 -8 9 -166 21 -185
15 -10 -3 -34 -3 -53 0 -70 13 0 23 103 15 154 -11 189 -11 193 0 11 31 21
181 12 186 -49 30 -355 58 -365 33 -3 -8 -14 -14 -24 -14 -25 0 -24 -21 1 -48
29 -30 25 -40 -5 -12 -16 15 -38 24 -61 24 -47 1 -64 24 -44 60 12 23 11 28
-5 46 -10 11 -21 17 -25 15 -5 -3 -10 0 -12 6 -3 9 -9 9 -26 0 -18 -10 -22 -9
-22 3 0 10 -6 13 -17 9 -9 -4 -14 -2 -11 3 3 5 2 18 -3 29 -8 19 -8 19 -15 -3
-5 -17 -9 -20 -15 -11 -4 7 -3 21 2 30 6 12 5 19 -4 22 -9 4 -8 8 3 16 8 6 22
8 30 5 8 -4 26 -7 40 -9 14 -1 30 -3 36 -3 6 -1 9 -14 7 -29 -5 -36 47 -88 96
-97 19 -3 32 -4 29 -1 -9 9 124 145 175 178 l50 32 -94 8 c-52 4 -174 6 -273
5 l-178 -3 46 -34 c26 -18 45 -35 43 -38 -3 -2 -31 14 -62 36 l-58 41 -125 0
-125 0 35 -42z"/>
<path d="M7604 3921 c-46 -27 -163 -142 -184 -181 -7 -14 5 -16 95 -18 67 -2
138 -11 202 -27 54 -13 99 -23 100 -22 4 5 23 163 23 197 0 27 -6 42 -22 54
-21 15 -21 16 -3 11 14 -4 17 -3 10 4 -8 8 -21 7 -44 -2 -27 -9 -35 -9 -38 1
-8 23 -85 14 -139 -17z"/>
<path d="M8332 3909 c-61 -39 -85 -122 -57 -194 l17 -45 -45 -52 c-52 -62
-107 -143 -107 -156 0 -12 24 -22 50 -22 18 0 59 45 143 154 25 33 32 36 78
36 31 0 48 4 44 10 -3 6 -24 10 -45 10 -29 0 -48 7 -72 29 -27 24 -32 36 -36
89 -4 59 -3 63 28 92 40 38 60 40 25 3 -27 -29 -40 -63 -33 -85 3 -7 14 8 26
33 12 26 29 49 37 53 9 3 14 10 10 15 -12 20 33 32 75 21 52 -14 80 -57 80
-123 0 -58 -21 -101 -58 -121 -15 -9 -21 -15 -14 -16 26 0 52 22 73 62 39 76
8 194 -58 219 -44 17 -125 10 -161 -12z"/>
<path d="M6553 3907 c-53 -20 -49 -27 15 -27 56 0 62 -2 62 -20 0 -11 6 -23
14 -26 8 -3 17 -12 20 -20 3 -9 1 -12 -4 -9 -6 3 -10 1 -10 -4 0 -6 7 -11 15
-11 8 0 15 7 15 16 0 11 6 15 20 11 11 -3 20 -1 20 5 0 6 6 8 14 5 7 -3 19 0
25 6 8 8 11 8 11 -1 0 -7 -4 -12 -10 -12 -5 0 -14 -10 -21 -22 -10 -18 -9 -20
6 -14 13 4 16 2 11 -9 -3 -8 -1 -15 4 -15 5 0 10 10 12 23 2 16 9 21 26 19 12
-2 22 2 22 7 0 6 -4 11 -10 11 -5 0 -10 7 -10 16 0 11 6 14 20 9 25 -8 26 7 2
28 -47 43 -195 61 -269 34z"/>
<path d="M9832 3911 c-56 -15 -57 -26 -5 -52 44 -21 64 -23 231 -27 l182 -4 0
41 c0 23 -1 41 -2 41 -56 6 -383 7 -406 1z"/>
<path d="M1980 3824 c0 -9 8 -63 17 -121 l17 -105 55 7 c31 4 103 10 160 14
l104 6 -80 75 c-49 47 -106 88 -145 108 -72 35 -128 42 -128 16z"/>
<path d="M4240 3776 c-81 -34 -183 -87 -177 -93 3 -2 55 -13 116 -24 61 -10
123 -22 137 -25 24 -6 26 -5 21 22 -3 16 -11 55 -17 87 -6 31 -14 57 -18 56
-4 0 -32 -11 -62 -23z"/>
<path d="M5720 3768 c0 -4 -7 -5 -15 -2 -8 3 -30 -3 -48 -15 -29 -17 -35 -29
-41 -67 -11 -84 -8 -101 25 -128 17 -14 35 -26 41 -26 6 0 33 23 61 51 42 40
49 52 37 59 -8 6 -10 10 -5 10 6 0 3 5 -5 10 -12 7 -8 12 19 21 31 11 32 13
14 20 -15 5 -19 14 -15 37 4 28 1 30 -32 34 -20 2 -36 1 -36 -4z"/>
<path d="M3520 3747 c-61 -21 -180 -91 -180 -106 0 -4 20 -14 44 -23 43 -16
47 -16 118 7 96 30 261 55 374 55 l89 1 -45 24 c-65 35 -165 65 -218 65 -39 0
-52 -5 -87 -37 l-40 -38 34 38 35 37 -30 0 c-16 0 -58 -11 -94 -23z"/>
<path d="M3740 3659 c-71 -8 -277 -52 -287 -63 -2 -2 29 -23 68 -46 40 -24 88
-54 107 -66 19 -13 44 -24 55 -24 11 0 68 35 126 79 58 43 119 86 134 96 54
35 -16 43 -203 24z"/>
<path d="M4060 3652 c0 -5 41 -44 90 -87 50 -43 117 -107 148 -143 40 -45 64
-64 74 -59 14 5 14 17 -4 119 -11 64 -26 118 -34 124 -26 20 -274 62 -274 46z"/>
<path d="M3032 3633 c-7 -10 -10 -12 -6 -4 6 11 -1 12 -32 7 -50 -9 -153 -57
-136 -63 6 -3 10 -8 7 -13 -3 -5 18 -13 47 -19 56 -12 54 -13 84 42 23 43 27
31 4 -14 -12 -23 -20 -42 -18 -43 2 -1 12 -8 22 -16 13 -10 17 -11 12 -2 -4 7
9 1 30 -13 20 -14 44 -25 53 -26 9 0 25 -2 37 -4 16 -4 32 10 69 57 42 55 46
64 38 92 l-9 31 -94 3 c-82 2 -97 0 -108 -15z"/>
<path d="M6925 3639 c-4 -6 -4 -13 -1 -16 3 -4 6 -1 6 6 0 7 5 9 10 6 6 -3 10
-13 10 -21 0 -12 -4 -12 -35 0 -27 12 -35 12 -35 2 0 -18 20 -35 35 -30 7 3
16 1 20 -5 3 -6 1 -11 -6 -11 -8 0 -7 -6 4 -17 10 -10 38 -44 64 -76 34 -43
49 -55 56 -45 7 10 8 9 4 -3 -7 -23 29 -79 50 -79 14 0 15 -2 4 -9 -8 -5 -9
-11 -3 -15 11 -6 27 11 27 29 0 9 9 11 34 7 12 -3 22 -32 15 -43 -4 -6 -11 -6
-19 1 -16 14 -38 -11 -29 -34 6 -15 9 -15 23 -3 31 27 45 32 38 14 -3 -9 -3
-16 1 -14 4 1 8 -2 10 -8 6 -17 27 -24 50 -18 l22 5 -26 47 c-36 61 -165 250
-176 257 -4 3 -8 -2 -8 -10 0 -20 -19 -21 -26 -1 -4 8 -14 15 -23 15 -13 0
-13 2 -2 9 16 10 6 31 -15 31 -8 0 -13 4 -10 9 3 4 -6 13 -20 20 -31 14 -41
14 -49 0z"/>
<path d="M3893 3585 c-43 -30 -96 -69 -117 -87 l-38 -33 124 3 c67 2 126 6
129 10 8 9 39 124 39 144 0 33 -56 18 -137 -37z"/>
<path d="M4025 3549 c-21 -83 -18 -88 60 -90 28 0 75 -4 106 -8 56 -7 57 -7
43 15 -17 25 -168 154 -181 154 -5 0 -17 -32 -28 -71z"/>
<path d="M1087 3593 c-10 -3 -166 -21 -346 -42 -365 -41 -381 -45 -381 -106 0
-31 157 -831 181 -917 10 -40 18 -45 37 -26 16 16 15 57 -7 161 -15 69 -16 87
-5 87 7 0 17 -6 21 -12 4 -7 18 -21 30 -32 22 -18 22 -18 34 10 27 68 44 94
61 94 29 0 21 18 -17 36 -69 32 -56 55 34 59 33 1 67 8 75 14 8 7 21 9 28 5 8
-5 8 -1 -2 11 -27 33 -69 44 -133 33 -63 -11 -89 -6 -81 15 3 8 -5 23 -18 33
-13 11 -27 27 -31 37 -4 11 -15 17 -25 15 -23 -4 -52 19 -52 41 0 22 20 41 43
41 10 0 32 8 48 17 22 13 34 15 47 7 9 -6 48 -9 85 -8 55 3 71 0 87 -16 10
-10 16 -21 13 -24 -4 -3 8 -6 25 -6 34 0 44 16 15 23 -10 2 -1 3 20 0 22 -2
56 -12 78 -23 49 -26 50 -25 43 9 -5 24 -3 29 20 33 15 3 23 1 19 -5 -4 -6 11
-8 41 -5 43 5 48 4 57 -19 13 -36 11 -79 -5 -92 -8 -7 -29 -10 -45 -8 -33 5
-33 -1 -3 -35 25 -30 62 -22 99 21 18 22 53 52 78 68 25 15 45 36 45 45 0 17
-30 152 -51 231 -9 34 -13 38 -37 35 -26 -3 -84 -74 -150 -184 -13 -22 -20
-30 -17 -19 10 33 68 125 108 170 20 24 37 48 37 54 0 6 8 16 18 22 14 9 17
20 13 48 -7 45 -29 76 -67 96 -30 15 -36 16 -67 8z"/>
<path d="M2056 3593 l-39 -4 7 -47 c3 -26 11 -75 17 -110 l11 -63 32 6 c48 11
77 34 141 110 32 39 69 80 82 93 l24 22 -118 -2 c-65 -1 -135 -3 -157 -5z"/>
<path d="M2374 3588 c-3 -4 -15 -8 -28 -8 -12 0 -37 -16 -58 -37 -45 -47 -110
-134 -105 -140 2 -2 49 1 104 6 106 10 134 20 233 85 101 67 99 63 33 76 -88
19 -173 27 -179 18z"/>
<path d="M6813 3580 c4 -16 2 -18 -13 -10 -10 6 -27 10 -37 10 -13 0 -8 -7 16
-22 19 -12 29 -24 23 -26 -8 -2 -8 -7 1 -17 7 -7 14 -12 17 -10 3 2 6 -7 6
-20 2 -21 -1 -23 -22 -15 -18 7 -22 6 -17 -5 3 -10 -1 -15 -12 -15 -9 0 -14 4
-11 9 4 5 -3 7 -14 4 -26 -7 -25 -9 5 -29 20 -13 28 -14 40 -4 12 10 15 9 15
-7 0 -22 44 -48 62 -37 7 5 8 2 3 -6 -5 -9 -2 -10 14 -5 16 5 20 3 15 -10 -5
-13 -2 -15 18 -10 19 5 37 -3 79 -37 30 -23 57 -43 62 -44 4 -1 14 -2 23 -3 8
0 12 -5 9 -11 -3 -5 -2 -10 4 -10 6 0 9 13 8 30 -1 16 -5 30 -9 30 -4 0 -10 9
-13 21 -9 29 -153 199 -168 199 -8 0 -8 -3 2 -9 15 -10 21 -51 9 -67 -4 -6 -2
-11 7 -11 8 0 15 7 15 16 0 14 2 14 10 1 6 -10 5 -20 -4 -30 -7 -8 -17 -22
-21 -30 -8 -13 -7 -13 8 -1 9 7 17 9 17 3 0 -17 -25 -20 -45 -6 -10 8 -14 14
-8 14 6 0 8 11 5 25 -2 14 -9 25 -14 25 -5 0 -8 6 -5 13 2 6 -9 21 -24 33 -16
11 -26 24 -22 27 3 4 1 7 -7 7 -10 0 -10 3 0 15 10 11 9 18 -3 30 -21 21 -30
19 -24 -5z"/>
<path d="M3362 3560 c-76 -34 -84 -132 -10 -121 4 0 49 3 100 7 51 3 111 9
133 13 l39 6 -31 23 c-54 38 -154 92 -171 92 -10 0 -36 -9 -60 -20z"/>
<path d="M8673 3491 c-13 -12 -23 -26 -23 -31 0 -13 114 -112 118 -102 2 6 19
6 40 2 20 -5 97 -5 170 -2 l132 7 -45 58 c-25 32 -57 62 -70 67 -13 5 -86 12
-162 16 -132 6 -139 5 -160 -15z"/>
<path d="M9049 3461 c23 -32 78 -89 103 -106 7 -5 54 -30 103 -54 60 -30 112
-66 159 -110 39 -36 79 -71 89 -76 11 -6 25 -27 32 -47 6 -20 22 -53 33 -72
30 -50 19 -45 -18 9 -33 48 -49 54 -74 29 -15 -14 -17 -14 -22 1 -4 9 -23 27
-43 40 l-36 25 48 0 c26 0 47 3 47 6 0 3 -12 21 -26 40 -35 46 -136 121 -202
150 -56 26 -72 29 -72 16 0 -10 82 -148 127 -213 18 -25 35 -58 38 -72 4 -14
13 -28 21 -31 8 -3 14 -13 14 -23 0 -19 72 -63 103 -63 10 0 16 -4 13 -9 -9
-14 32 -44 50 -37 24 9 43 -22 44 -71 0 -33 -6 -48 -27 -68 -15 -14 -36 -25
-45 -25 -36 0 -17 -18 30 -28 46 -9 45 -10 -28 -8 -60 1 -75 -2 -76 -14 -3
-50 -18 -137 -26 -147 -6 -7 -3 -25 7 -48 22 -55 17 -57 -10 -3 -26 48 -31 51
-115 60 -22 3 -25 8 -28 51 -3 43 -5 46 -22 37 -11 -6 -36 -26 -57 -45 -36
-33 -39 -34 -98 -28 -33 3 -67 9 -75 13 -20 10 -40 2 -40 -17 0 -9 -8 -13 -22
-11 -17 2 -24 11 -26 31 -2 15 -6 27 -10 27 -66 3 -146 11 -153 16 -17 10 -9
53 12 68 l21 14 -24 24 c-29 29 -188 148 -198 148 -12 0 -32 -28 -26 -38 3 -5
-1 -9 -9 -9 -8 0 -15 2 -15 4 0 6 47 76 69 103 11 14 21 33 21 43 0 9 7 17 14
17 8 0 27 16 42 35 l27 36 -22 23 c-23 24 -36 24 -92 1 -23 -9 -56 -160 -39
-180 10 -12 9 -15 -4 -15 -13 0 -16 -5 -11 -20 4 -12 2 -20 -5 -20 -8 0 -10
-9 -6 -23 4 -17 -4 -39 -25 -72 -36 -56 -45 -87 -23 -78 8 3 14 12 14 21 0 8
2 13 5 10 5 -5 -11 -95 -90 -497 -30 -150 -18 -177 95 -205 87 -21 287 -45
336 -40 30 3 35 2 24 -6 -11 -9 -5 -10 27 -8 23 2 39 0 37 -4 -3 -5 16 -9 43
-10 70 -3 86 -4 106 -13 10 -4 31 -5 48 -1 18 3 28 2 24 -4 -6 -10 56 -15 123
-11 18 2 39 -3 47 -9 8 -7 26 -10 40 -8 13 3 22 2 20 -2 -3 -4 38 -13 89 -20
73 -9 98 -10 112 0 18 11 18 11 -1 5 -17 -5 -15 -2 8 22 17 19 27 40 27 59 0
16 23 174 50 349 28 176 50 329 48 340 -1 11 1 26 5 32 11 17 72 350 91 493 9
63 20 140 25 170 16 97 -9 117 -160 130 -63 6 -170 17 -239 25 -69 7 -185 17
-259 21 l-134 7 22 -32z m-182 -985 c9 -8 8 -27 -4 -80 l-16 -68 -66 7 c-36 4
-69 10 -74 14 -9 9 11 121 24 138 12 14 118 6 136 -11z m515 -64 c8 -8 8 -15
0 -24 -6 -7 -17 -38 -24 -68 l-15 -55 -49 3 c-27 2 -52 7 -56 10 -4 4 -2 40 4
81 l12 73 58 -4 c32 -2 63 -9 70 -16z"/>
<path d="M7758 3422 c-15 -2 -37 -15 -49 -30 -11 -15 -24 -27 -27 -27 -19 -1
-62 -40 -62 -56 0 -12 -7 -19 -19 -19 -44 0 -27 -19 26 -30 32 -6 76 -16 97
-22 29 -7 41 -6 46 3 8 12 25 179 18 182 -1 2 -15 1 -30 -1z"/>
<path d="M9846 3328 c-3 -46 -8 -112 -11 -148 -6 -65 -6 -65 12 -40 62 86 106
102 275 104 l118 1 0 51 0 50 -77 -1 c-93 -1 -179 14 -251 44 -29 11 -54 21
-56 21 -2 0 -6 -37 -10 -82z"/>
<path d="M2203 3383 c-13 -2 -23 -8 -23 -13 0 -4 -8 -10 -18 -12 -10 -3 -33
-33 -51 -68 -32 -59 -33 -66 -25 -119 l9 -55 60 -13 c85 -17 85 -17 85 20 0
29 5 34 53 56 55 26 107 67 107 86 0 12 -53 55 -69 55 -22 0 -22 23 0 46 l22
24 -64 -1 c-35 -1 -74 -4 -86 -6z"/>
<path d="M4863 3360 c-47 -15 -63 -53 -63 -149 0 -74 2 -83 28 -111 22 -26 38
-33 92 -40 36 -5 86 -10 111 -10 43 0 48 -3 74 -40 15 -22 31 -40 36 -40 4 0
11 16 15 35 5 26 12 36 30 40 13 3 35 7 47 10 36 7 77 44 77 69 0 12 -7 47
-16 77 -20 66 -72 119 -141 143 -57 20 -244 30 -290 16z m163 -10 c119 -21
187 -69 214 -153 24 -73 14 -101 -43 -120 -32 -10 -43 -20 -52 -47 l-11 -34
-24 32 c-13 18 -33 32 -44 32 -11 0 -60 5 -110 12 -77 10 -95 15 -118 39 -25
25 -28 34 -28 99 0 84 18 127 58 136 15 3 32 7 37 9 20 7 62 5 121 -5z"/>
<path d="M6824 3354 c5 -13 4 -14 -7 -6 -17 15 -61 4 -48 -12 5 -6 12 -22 16
-35 6 -19 4 -23 -8 -18 -8 3 -20 0 -26 -6 -8 -8 -11 -8 -11 2 0 7 -5 9 -10 6
-6 -4 -8 -11 -5 -16 3 -5 -1 -6 -9 -3 -11 4 -16 0 -16 -14 0 -21 24 -37 50
-33 12 1 11 -1 -2 -9 -20 -12 -78 17 -78 39 0 11 -3 11 -15 1 -20 -16 -19 -30
1 -30 15 0 15 -2 0 -25 -22 -34 -20 -43 4 -17 25 26 23 26 62 6 23 -12 29 -21
26 -38 -4 -19 -1 -22 14 -18 11 3 17 10 14 19 -4 11 -1 11 14 3 14 -8 20 -8
20 0 0 7 9 9 23 5 21 -7 21 -6 3 8 -11 8 -28 12 -39 9 -11 -3 -18 -1 -16 4 3
5 11 21 18 36 8 15 18 25 24 21 5 -3 3 -9 -4 -14 -11 -7 -10 -9 4 -9 9 0 27
-10 39 -22 l23 -23 9 27 9 26 29 -31 c15 -17 28 -26 28 -20 0 6 8 14 18 16 11
3 7 7 -15 12 -36 8 -43 21 -15 28 12 3 10 5 -7 6 -19 1 -21 4 -12 15 10 12 7
15 -16 18 -17 2 -28 9 -28 18 -1 8 -7 14 -13 12 -10 -2 -10 3 -2 18 6 11 16
17 22 14 7 -5 8 -2 4 5 -5 7 -14 10 -22 7 -8 -3 -14 1 -14 8 0 8 -7 17 -16 20
-24 9 -27 8 -20 -10z"/>
<path d="M8935 3343 c-16 -2 -37 -7 -45 -10 -8 -3 -18 -6 -22 -5 -9 2 -4 -26
7 -35 4 -4 5 -2 1 5 -4 6 -3 12 3 12 5 0 12 -9 16 -19 4 -13 12 -18 21 -14 8
3 22 -1 32 -9 11 -9 45 -15 92 -17 52 -2 89 -10 121 -25 l46 -22 -21 39 c-12
21 -41 54 -65 73 -39 30 -50 34 -100 33 -31 -1 -69 -4 -86 -6z"/>
<path d="M8670 3262 c-65 -32 -76 -41 -81 -69 -5 -27 -1 -36 30 -66 32 -30 40
-33 67 -26 29 8 33 15 49 78 9 38 15 80 13 95 l-3 25 -75 -37z"/>
<path d="M5823 3278 c4 -12 2 -18 -8 -18 -8 0 -15 -4 -15 -10 0 -5 5 -10 10
-10 6 0 10 -9 10 -19 0 -11 11 -32 25 -47 15 -16 21 -30 16 -34 -6 -3 -12 -15
-14 -25 -2 -11 -8 -30 -13 -41 -8 -19 -11 -20 -22 -8 -11 12 -10 14 5 15 16 0
16 1 -2 9 -11 5 -16 9 -12 9 4 1 -1 11 -13 23 -11 12 -20 28 -20 35 0 7 -4 13
-9 13 -11 0 -7 -30 8 -59 9 -17 8 -20 -8 -18 -12 1 -17 7 -13 19 5 19 -5 23
-25 10 -7 -4 -11 -18 -8 -31 6 -31 14 -39 24 -22 7 10 10 9 14 -3 4 -9 2 -16
-4 -16 -6 0 -7 -5 -3 -12 5 -7 2 -9 -9 -5 -9 3 -18 0 -21 -9 -6 -16 16 -19 44
-4 15 8 18 6 15 -8 -1 -9 2 -27 6 -39 5 -13 5 -22 1 -22 -25 4 -34 -3 -14 -11
22 -9 22 -11 7 -41 -9 -17 -14 -37 -11 -44 2 -7 -2 -16 -10 -19 -9 -3 -13 -10
-9 -15 3 -5 1 -12 -5 -16 -5 -3 -10 -2 -10 4 0 6 -8 7 -17 4 -11 -4 -12 -8 -5
-11 17 -5 -4 -42 -24 -42 -8 0 -13 -4 -9 -9 3 -5 1 -12 -5 -16 -5 -3 -10 -2
-10 3 0 12 -32 10 -41 -1 -8 -12 -59 3 -59 17 0 6 7 63 16 126 15 110 31 149
55 134 5 -3 9 0 9 7 0 6 -8 9 -20 6 -19 -5 -20 -2 -15 51 3 32 8 75 11 97 l6
40 -41 -54 c-23 -30 -41 -57 -41 -60 0 -3 -11 -88 -25 -189 -27 -195 -25 -217
18 -226 12 -3 67 -12 122 -20 55 -9 201 -31 325 -51 124 -19 342 -53 485 -75
143 -22 373 -58 510 -80 689 -108 674 -106 691 -89 16 16 57 320 46 347 -5 15
-214 204 -219 199 -1 -2 13 -43 33 -91 20 -48 34 -89 32 -92 -3 -2 -21 38 -42
90 l-38 94 -52 -2 c-47 -2 -106 -22 -106 -35 0 -3 12 -26 27 -51 48 -83 134
-262 129 -268 -3 -3 -6 0 -6 6 0 7 -9 12 -20 12 -13 0 -18 -5 -14 -15 4 -8 14
-15 23 -15 14 0 14 -2 1 -10 -13 -9 -13 -10 0 -11 8 0 2 -5 -14 -11 -21 -8
-25 -13 -15 -19 17 -10 -27 -12 -83 -3 -47 8 -52 24 -21 60 13 16 22 23 18 17
-4 -9 -1 -11 10 -7 10 4 15 14 12 24 -2 10 1 17 9 17 8 0 14 -7 14 -14 0 -21
23 -10 37 17 10 20 9 30 -9 62 -12 20 -26 34 -31 31 -6 -3 -7 -1 -3 5 9 15
-21 73 -102 197 -35 55 -66 102 -69 104 -2 3 -16 -7 -31 -22 l-27 -27 28 0
c15 0 27 -4 27 -9 0 -14 -29 -21 -36 -10 -3 6 -17 9 -30 6 -18 -3 -22 -1 -14
8 5 6 7 15 4 18 -4 4 4 11 18 16 47 18 50 34 17 80 -25 34 -34 39 -45 30 -11
-9 -19 -8 -34 6 -11 10 -20 13 -20 7 0 -8 -8 -9 -26 -2 -18 7 -31 7 -39 0 -10
-8 -17 -6 -27 9 -8 12 -18 18 -21 14 -4 -3 -2 -12 4 -20 9 -10 8 -13 -1 -13
-9 0 -10 -3 -1 -13 6 -8 9 -17 6 -21 -3 -3 1 -2 7 4 17 14 35 13 20 -2 -15
-15 -16 -32 -2 -23 6 3 10 2 10 -4 0 -5 9 -13 20 -16 11 -3 20 -14 20 -23 0
-12 -3 -13 -12 -4 -7 7 -17 12 -23 12 -5 -1 0 -9 12 -19 12 -10 20 -21 17 -24
-4 -3 0 -15 8 -26 8 -12 17 -19 19 -17 2 2 4 -6 4 -19 0 -27 -13 -23 -25 9 -8
19 -9 18 -16 -12 -4 -19 -10 -29 -13 -24 -6 9 -45 32 -55 32 -14 0 -5 -18 12
-24 34 -13 72 -37 72 -47 0 -16 -29 -22 -45 -9 -13 11 -14 9 -6 -11 5 -13 16
-23 25 -23 9 1 16 -2 16 -7 0 -5 -10 -9 -22 -9 -33 0 -52 -15 -42 -31 6 -12 5
-12 -9 0 -16 13 -16 15 3 31 26 22 25 30 -2 30 -12 0 -18 -3 -15 -7 4 -3 -3
-13 -14 -21 -18 -12 -23 -13 -30 -1 -13 21 -11 32 6 25 8 -3 19 2 24 12 12 21
-29 62 -62 62 -18 0 -19 2 -7 10 9 6 10 10 3 10 -7 0 -17 -10 -24 -22 -10 -18
-9 -20 5 -15 10 4 16 1 16 -8 0 -8 5 -15 10 -15 6 0 10 -9 10 -21 0 -11 -5
-17 -10 -14 -6 4 -8 10 -5 15 3 4 -1 10 -8 13 -10 4 -13 -4 -12 -28 3 -44 14
-62 27 -44 8 11 9 10 5 -3 -6 -17 15 -42 26 -31 4 3 7 0 7 -7 0 -7 6 -21 14
-29 10 -11 11 -23 5 -39 l-9 -23 -21 20 c-25 23 -39 19 -39 -9 0 -22 -9 -29
-44 -32 -14 -1 -26 -6 -26 -11 0 -4 -5 -5 -10 -2 -6 3 -13 0 -16 -8 -5 -15
-19 -14 -82 5 -24 7 -32 14 -28 25 4 11 2 13 -9 9 -9 -3 -15 0 -15 10 0 8 -6
14 -12 13 -7 -1 -20 -1 -28 0 -13 1 -13 2 0 11 12 7 10 9 -8 7 -27 -2 -27 -3
-2 -34 11 -15 17 -29 14 -32 -3 -3 -13 4 -21 17 -18 25 -63 31 -63 7 0 -16
-12 -18 -47 -9 -13 4 -20 10 -18 15 3 4 12 6 19 3 18 -7 27 21 31 93 3 48 0
58 -21 80 -27 27 -44 22 -47 -15 0 -11 -5 -18 -9 -16 -5 3 -5 11 -1 17 5 8 2
8 -9 0 -8 -7 -18 -10 -21 -6 -4 3 -7 1 -7 -5 0 -16 36 -33 54 -26 9 3 16 1 16
-5 0 -6 3 -10 8 -10 22 4 32 -3 32 -21 0 -21 -24 -28 -35 -10 -9 15 -35 12
-35 -4 0 -8 -6 -18 -12 -22 -7 -4 -10 -4 -6 1 4 4 0 14 -10 21 -13 9 -20 10
-31 1 -12 -9 -13 -9 -7 1 4 6 3 12 -3 12 -5 0 -11 -10 -13 -22 -2 -15 -10 -23
-23 -23 -16 0 -20 7 -20 35 0 33 2 35 29 32 33 -4 48 13 40 44 -4 15 1 26 16
37 l21 15 -20 40 c-11 22 -26 42 -33 45 -7 3 8 6 34 6 38 1 46 4 41 16 -3 9
-2 15 3 14 16 -4 44 13 44 26 0 7 -7 18 -15 25 -8 7 -14 20 -13 28 2 10 -6 18
-17 20 -11 3 -23 9 -26 14 -4 5 -9 -2 -13 -16 -7 -30 -22 -33 -49 -8 -11 9
-17 12 -14 5 4 -6 3 -15 -3 -18 -6 -4 -10 -3 -9 2 4 22 -2 43 -11 38 -5 -3
-10 3 -10 14 0 11 -5 23 -12 27 -6 4 -8 3 -5 -3 4 -6 -2 -13 -13 -16 -11 -3
-20 -12 -20 -21 0 -9 -4 -16 -10 -16 -5 0 -10 9 -10 20 0 24 -6 25 -26 5 -14
-13 -14 -15 0 -15 18 0 21 -15 6 -25 -5 -3 -15 5 -22 19 -6 14 -15 26 -21 26
-5 0 -7 7 -4 14 4 10 1 13 -8 10 -9 -4 -16 3 -21 20 -3 14 -10 26 -15 26 -5 0
-6 -7 -2 -16 3 -9 1 -19 -5 -23 -8 -5 0 -23 22 -53 26 -38 36 -45 46 -35 10 9
14 9 17 -1 3 -6 9 -10 13 -7 5 3 12 0 15 -6 5 -6 0 -10 -11 -9 -34 4 -36 0
-14 -35 30 -48 19 -44 -15 5 -15 22 -34 40 -41 40 -8 0 -13 6 -11 12 1 7 -8
14 -20 16 -12 2 -27 9 -33 17 -6 8 -18 11 -26 8 -8 -3 -14 -1 -14 5 0 5 9 12
20 15 11 3 20 10 20 16 0 15 -47 14 -53 -1 -4 -10 -6 -10 -6 0 -1 6 -9 12 -19
12 -19 0 -52 -56 -52 -90 0 -10 -4 -20 -9 -22 -15 -6 -51 -116 -39 -120 7 -3
8 -9 3 -18 -12 -19 -14 -51 -3 -44 21 13 -5 -73 -26 -88 -13 -9 -28 1 -21 13
4 5 2 9 -2 9 -5 0 -16 -19 -25 -42 l-17 -43 3 35 c1 19 8 45 14 57 18 32 15
45 -8 38 -11 -3 -20 -3 -20 0 0 14 24 51 43 64 14 10 16 16 7 21 -9 6 -7 10 8
14 19 6 52 70 52 100 0 8 11 37 25 64 29 57 31 80 10 88 -8 4 -12 11 -9 16 4
6 10 5 15 -3 7 -11 9 -11 9 1 -1 19 -24 50 -39 50 -6 0 -11 7 -11 16 0 8 -4
13 -9 10 -5 -3 -12 1 -15 10 -3 8 -10 13 -15 10 -5 -4 -17 2 -27 11 -17 17
-18 17 -11 1z m321 -387 c-2 -3 6 -15 18 -28 12 -13 16 -23 10 -23 -7 0 -12 6
-12 13 0 8 -3 7 -10 -3 -5 -9 -5 -19 0 -26 6 -6 7 -13 4 -17 -3 -3 -3 -15 1
-26 5 -16 15 -21 44 -21 l38 0 -4 -40 c-3 -22 -2 -40 2 -40 9 0 31 23 38 40 4
11 6 9 6 -5 1 -12 -5 -27 -11 -34 -7 -7 -8 -11 -3 -9 10 3 15 -4 15 -23 0 -8
-4 -8 -13 -1 -7 6 -24 8 -37 5 -20 -5 -22 -3 -18 15 5 17 2 22 -12 22 -11 0
-22 5 -25 10 -8 12 -35 13 -35 1 0 -5 14 -11 30 -14 17 -4 30 -12 30 -18 0 -8
-21 -10 -72 -6 -93 8 -138 17 -138 29 0 5 -4 6 -10 3 -5 -3 -10 1 -10 9 0 10
9 16 23 17 l22 0 -23 9 c-13 6 -22 15 -21 22 3 27 -2 38 -17 38 -8 0 -12 5 -9
10 9 14 35 12 33 -2 -2 -7 3 -12 10 -10 8 1 16 -7 19 -18 3 -12 13 -20 27 -19
20 0 20 1 1 9 -19 7 -18 9 7 19 17 6 26 16 22 24 -3 8 2 17 10 20 9 4 16 2 16
-2 0 -5 -5 -11 -10 -13 -7 -2 -5 -11 4 -23 12 -16 17 -18 27 -7 10 9 10 12 1
12 -7 0 -12 5 -12 11 0 5 5 7 10 4 22 -13 29 7 10 27 -11 12 -23 19 -26 15
-10 -10 -31 16 -27 34 4 12 15 17 43 15 21 0 36 -3 34 -5z"/>
<path d="M3848 3259 c10 -14 8 -16 -18 -14 -27 2 -75 -5 -185 -24 -28 -4 -40
-11 -39 -23 1 -12 -5 -15 -22 -12 -26 5 -31 -5 -12 -24 9 -9 4 -9 -19 0 -37
14 -110 0 -105 -20 1 -7 -5 -15 -13 -18 -8 -3 -12 -10 -9 -15 3 -5 -1 -9 -8
-9 -7 -1 -1 -8 15 -16 15 -8 32 -12 38 -8 6 4 15 1 19 -6 9 -15 81 -22 96 -9
8 7 15 6 19 -2 6 -8 10 -8 16 2 4 7 11 10 15 6 11 -11 -2 -19 -43 -27 -37 -8
-37 -8 -7 -9 19 -1 34 -7 38 -17 4 -11 13 -13 27 -9 18 6 21 4 16 -9 -4 -9 -1
-16 5 -16 6 0 9 -2 6 -5 -3 -3 -17 -1 -30 6 -19 8 -31 8 -47 0 -18 -10 -21 -9
-21 9 0 21 -43 46 -60 35 -5 -3 -10 1 -13 7 -3 10 -8 10 -23 -2 -17 -14 -18
-14 -6 1 11 14 9 17 -10 22 -12 4 -29 1 -37 -6 -12 -10 -14 -9 -8 6 5 13 1 17
-16 16 -12 0 -16 -3 -9 -6 6 -2 12 -9 12 -15 0 -6 -7 -8 -15 -4 -12 4 -15 -4
-15 -43 0 -37 4 -50 18 -56 16 -6 16 -7 0 -16 -23 -13 -12 -42 13 -34 11 4 19
2 19 -4 0 -6 -6 -11 -14 -11 -8 0 -18 -10 -21 -21 -6 -17 -9 -19 -16 -8 -5 8
-6 21 -3 31 2 9 0 19 -6 23 -5 3 -7 17 -4 30 8 34 -4 50 -25 31 -26 -24 -73
-38 -85 -26 -16 16 -26 12 -20 -7 5 -15 4 -16 -5 -3 -7 11 -6 21 4 36 15 23
11 34 -12 34 -8 0 -11 -5 -7 -11 5 -9 -1 -10 -20 -5 -18 4 -25 3 -21 -4 12
-19 -5 -48 -31 -53 -21 -4 -25 -1 -21 14 3 11 2 19 -3 19 -20 0 -33 -37 -35
-103 -3 -77 10 -108 62 -153 13 -11 26 -36 30 -57 5 -36 5 -37 -25 -37 -27 0
-32 5 -41 38 -7 24 -7 38 -1 40 15 5 12 21 -12 55 -20 27 -22 28 -29 11 -6
-16 -8 -14 -8 9 -1 34 -29 79 -44 70 -6 -4 -7 -1 -2 8 11 22 -42 -41 -76 -88
-16 -24 -32 -43 -35 -43 -3 0 17 33 45 73 29 42 46 74 39 76 -6 2 -17 -4 -23
-13 -16 -21 -22 -20 -28 3 -3 13 3 23 19 32 17 9 21 16 13 25 -8 9 -16 9 -39
-3 -29 -14 -40 -33 -19 -33 5 0 7 -4 4 -10 -11 -17 -33 -11 -40 11 -6 17 -13
20 -36 15 -45 -9 -43 10 4 24 36 12 38 15 18 18 -27 4 -67 -14 -75 -35 -3 -8
-1 -11 4 -8 6 3 10 1 10 -5 0 -6 -7 -13 -15 -16 -8 -4 -15 -19 -15 -34 0 -30
-12 -43 -43 -45 -10 -1 -23 -8 -28 -16 -6 -10 -9 -7 -9 14 0 20 5 27 18 27 18
0 52 29 52 43 0 3 -12 18 -26 32 -17 17 -32 24 -45 20 -35 -11 -20 12 19 28
29 12 32 15 14 16 -12 1 -41 -7 -65 -17 -67 -30 -107 -41 -107 -31 0 5 -4 9
-10 9 -5 0 -10 -6 -10 -14 0 -14 -42 -49 -87 -73 -19 -10 -23 -9 -23 3 0 8 -5
13 -12 11 -6 -1 -18 11 -26 26 -13 27 -17 29 -57 23 -35 -6 -44 -4 -49 10 -4
10 -2 21 5 24 8 5 6 14 -7 28 -17 21 -18 21 -43 2 -64 -49 -63 -47 -51 -72 10
-21 10 -22 -4 -4 -27 34 -45 -3 -30 -61 3 -12 17 -24 32 -28 44 -11 234 -87
229 -91 -3 -3 -49 13 -103 34 -186 74 -196 64 -72 -67 l83 -86 -78 75 c-42 41
-77 71 -77 66 0 -15 51 -310 56 -330 6 -17 14 -18 93 -12 81 6 860 43 1406 66
705 31 825 37 831 43 7 6 -101 595 -110 604 -11 11 -220 -165 -348 -292 -24
-24 -36 -31 -29 -18 16 31 193 195 289 266 69 52 82 66 82 90 0 24 -7 32 -57
55 -62 29 -138 34 -177 12 -24 -13 -119 -132 -124 -155 -2 -9 2 -22 8 -30 7
-8 10 -15 8 -15 -3 0 -36 38 -74 85 -38 46 -72 84 -76 85 -5 0 -8 -9 -8 -21 0
-11 -4 -18 -10 -14 -5 3 -6 15 0 29 7 20 2 30 -38 67 -25 24 -41 37 -34 28z"/>
<path d="M4050 3259 c0 -4 6 -10 13 -13 6 -4 1 -3 -13 0 -23 6 -91 7 -96 1 -1
-1 -5 -13 -9 -27 -5 -21 5 -39 52 -98 57 -71 58 -72 73 -50 8 12 41 55 72 95
32 40 53 75 48 78 -15 9 -140 22 -140 14z"/>
<path d="M7440 3250 c-8 -5 -32 -7 -52 -3 -31 4 -38 2 -38 -10 0 -11 -5 -14
-16 -10 -14 5 -15 3 -5 -15 15 -29 14 -40 -2 -17 -11 14 -16 15 -22 5 -5 -9
-4 -15 3 -18 14 -4 6 -22 -10 -22 -6 0 -9 3 -6 6 4 3 2 18 -2 34 -7 24 -6 28
8 23 10 -5 13 -3 7 6 -5 9 -19 11 -44 6 -59 -10 -71 -16 -71 -32 0 -13 3 -13
18 -2 15 11 15 11 -1 -7 -18 -19 -18 -19 -33 0 -7 11 -17 16 -21 11 -5 -4 -2
-10 5 -12 7 -3 17 -13 22 -24 8 -15 7 -17 -5 -13 -8 4 -15 10 -15 15 0 5 -4 9
-10 9 -5 0 -9 -11 -8 -24 2 -20 5 -23 16 -14 11 9 12 7 8 -13 -9 -34 42 -92
68 -77 13 7 14 13 6 23 -9 11 -6 14 17 13 15 0 42 7 58 16 17 9 35 16 42 16 8
0 10 7 6 18 -6 14 -4 15 9 4 11 -8 23 -10 39 -3 13 4 48 12 77 16 54 7 64 21
42 55 -8 12 -16 9 -47 -20 l-37 -35 39 44 c35 41 37 45 19 52 -27 11 -46 10
-64 -1z"/>
<path d="M7485 3139 c-28 -4 -55 -16 -63 -26 -11 -16 -14 -16 -23 -3 -16 22
-7 2 25 -62 18 -34 38 -59 50 -62 11 -3 55 6 97 19 43 13 100 27 127 31 49 6
61 18 62 59 0 21 -57 43 -129 49 l-74 7 6 -28 c14 -73 14 -101 0 -40 -9 37
-19 66 -22 66 -3 -1 -28 -5 -56 -10z"/>
<path d="M2153 3053 c-48 -16 -54 -36 -29 -85 8 -16 11 -28 7 -28 -5 0 -6 -11
-3 -25 2 -14 9 -22 14 -19 5 3 7 13 3 21 -4 12 -2 13 8 5 11 -9 18 -7 34 11
33 35 63 90 63 115 0 18 -5 22 -27 21 -16 0 -47 -7 -70 -16z"/>
<path d="M7660 3016 c-143 -40 -157 -46 -156 -65 1 -19 216 -231 216 -214 0 4
7 67 15 138 8 72 15 136 15 143 0 15 -31 14 -90 -2z"/>
<path d="M8143 2994 c-4 -10 -13 -14 -28 -10 -28 7 -46 -13 -38 -42 4 -15 1
-22 -9 -22 -11 0 -14 10 -12 35 1 19 -1 35 -6 35 -4 0 -7 -13 -6 -30 1 -19 -3
-30 -11 -30 -7 0 -13 -8 -12 -17 0 -11 3 -13 6 -5 2 6 9 12 14 12 6 0 9 -6 8
-12 -3 -27 2 -38 16 -38 8 0 15 -6 16 -12 1 -7 2 -22 3 -33 1 -15 7 -20 29
-18 18 1 27 -3 27 -13 0 -8 10 -14 25 -14 16 0 25 6 25 15 0 11 9 14 33 13 30
-3 32 -1 29 30 -1 22 2 32 12 32 24 0 26 29 4 44 -12 9 -21 27 -22 43 -1 23
-5 28 -26 27 -14 -1 -29 5 -33 12 -11 19 -36 18 -44 -2z m74 -30 c17 6 20 3
16 -18 -4 -17 1 -28 16 -38 27 -16 27 -24 0 -31 -17 -5 -20 -11 -15 -32 6 -23
4 -25 -18 -19 -19 4 -27 1 -36 -16 l-12 -22 -20 22 c-16 17 -23 19 -34 9 -11
-9 -14 -6 -14 17 0 16 -4 36 -10 44 -5 8 -5 19 0 25 4 5 10 21 12 35 1 14 9
26 16 26 6 1 19 2 27 3 8 0 15 9 15 19 0 14 4 13 19 -7 13 -16 24 -21 38 -17z"/>
<path d="M1201 2934 c-19 -14 -22 -23 -18 -50 3 -18 1 -34 -4 -36 -16 -5 0
-35 21 -41 12 -3 20 1 22 10 2 11 18 17 50 19 l46 4 7 -40 c5 -32 11 -40 22
-35 13 4 14 3 3 -10 -17 -20 -5 -32 15 -15 16 14 21 55 5 45 -5 -3 -7 0 -4 9
3 8 0 40 -6 70 -11 56 -11 56 -62 71 -64 19 -68 19 -97 -1z"/>
<path d="M9793 2899 c-6 -13 -18 -60 -26 -104 -28 -144 -29 -155 -15 -159 32
-11 117 -13 126 -4 6 6 12 6 16 -1 8 -13 66 -15 66 -2 0 4 13 8 29 7 33 -1 34
0 -36 -80 -47 -53 -53 -80 -24 -96 15 -7 23 -6 35 6 17 17 21 28 7 20 -5 -3
-15 1 -22 10 -11 14 2 31 104 128 69 66 117 120 117 132 1 10 7 30 15 44 21
36 18 43 -9 24 -14 -8 -28 -28 -31 -44 -5 -21 -14 -29 -36 -34 -16 -3 -29 -10
-29 -15 0 -6 6 -8 14 -5 8 3 17 1 20 -5 11 -17 -33 -23 -50 -7 -12 12 -12 16
-2 17 7 0 5 4 -5 8 -17 6 -17 8 4 35 l22 28 -24 19 c-44 35 -70 35 -96 3 -54
-68 -64 -76 -79 -63 -15 13 -15 40 1 51 6 5 3 8 -6 8 -30 0 -68 39 -71 72 l-3
32 -12 -25z"/>
<path d="M7996 2881 c-4 -6 -20 -10 -34 -9 -21 2 -27 -1 -27 -17 0 -11 -8 -21
-18 -23 -19 -4 -23 -27 -7 -37 6 -4 10 -14 8 -23 -4 -24 10 -42 27 -35 9 3 15
-1 15 -11 0 -18 25 -22 35 -6 3 6 17 7 31 4 19 -5 24 -2 24 14 0 11 7 22 15
26 17 6 21 36 5 36 -6 0 -9 12 -8 27 2 20 -2 28 -17 31 -11 3 -25 11 -31 20
-8 11 -13 12 -18 3z"/>
<path d="M8786 2849 c-3 -17 -6 -43 -6 -58 0 -26 2 -27 68 -29 79 -4 86 2 96
70 7 44 6 46 -14 41 -17 -4 -18 -8 -8 -14 10 -7 10 -9 -2 -9 -9 0 -21 5 -27
11 -15 15 -47 3 -37 -13 5 -7 -5 -3 -20 10 -37 29 -42 28 -50 -9z"/>
<path d="M8297 2793 c-4 -3 -7 -25 -7 -48 0 -56 38 -100 78 -90 15 4 35 14 46
23 10 9 20 16 23 14 3 -2 18 16 34 40 27 40 28 44 12 56 -18 13 -174 18 -186
5z"/>
<path d="M1367 2729 c-14 -8 -16 -19 -10 -66 6 -55 6 -56 -17 -50 -28 7 -61
-21 -56 -49 2 -10 7 -32 10 -49 6 -30 6 -30 -6 -5 -17 36 -18 37 -33 16 -13
-17 -15 -17 -30 -2 -18 18 -60 22 -70 6 -3 -5 1 -36 8 -68 13 -56 13 -61 -5
-73 -34 -24 -39 -45 -18 -72 22 -27 27 -48 8 -29 -22 22 -28 13 -22 -29 l7
-41 -32 16 c-17 9 -31 23 -31 31 0 8 -6 15 -14 15 -8 0 -12 -7 -10 -17 5 -21
-34 -71 -44 -57 -8 11 -10 11 -122 13 -70 1 -81 3 -91 22 -9 17 -8 23 2 30 9
5 -14 9 -58 9 -70 0 -95 12 -54 25 13 4 25 24 36 61 15 53 15 57 -2 69 -10 8
-35 17 -55 20 -24 4 -39 13 -43 26 -4 10 -10 19 -14 19 -16 0 -40 -37 -36 -55
3 -11 27 -130 55 -264 53 -254 66 -293 102 -312 23 -12 134 -6 198 11 19 5
143 30 275 55 132 25 258 52 281 60 39 15 64 46 64 80 0 14 -149 657 -153 661
-1 2 -10 -2 -20 -7z"/>
<path d="M22 2710 c-16 -7 -22 -18 -22 -40 0 -35 -2 -34 36 -16 16 8 47 16 69
18 32 2 40 -1 43 -15 5 -23 -37 -137 -50 -137 -5 0 -26 9 -48 20 -49 25 -50
25 -50 -5 0 -14 6 -25 13 -25 6 0 35 -12 62 -26 32 -17 65 -26 94 -25 24 0 52
-4 62 -10 15 -7 17 -6 13 6 -4 8 -10 15 -15 15 -14 0 0 24 21 38 16 10 18 9
14 -3 -4 -8 -3 -15 0 -15 4 0 12 14 17 30 15 41 26 38 31 -10 7 -77 -35 -166
-94 -196 -29 -15 -64 -12 -54 4 2 4 -11 6 -30 4 -36 -4 -87 11 -117 36 -16 14
-17 11 -17 -58 l0 -72 48 7 c90 13 129 27 178 63 83 63 122 167 93 251 -12 35
-31 39 -86 16 -41 -17 -63 -19 -63 -5 0 15 52 123 68 143 13 15 13 17 1 17 -8
0 -20 -5 -27 -12 -9 -9 -21 -9 -50 0 -46 14 -107 15 -140 2z"/>
<path d="M10168 2671 c-89 -80 -151 -141 -146 -146 3 -3 16 4 31 15 14 11 28
20 32 20 4 0 36 -25 70 -55 35 -30 68 -55 74 -55 6 0 11 20 11 47 0 42 -5 52
-42 91 l-43 43 25 19 c14 10 27 15 28 10 7 -20 28 -9 30 15 3 35 -28 33 -70
-4z"/>
<path d="M5435 2600 c-38 -15 -101 -40 -140 -55 -38 -14 -79 -30 -90 -35 -61
-25 -168 -59 -175 -55 -4 3 -11 -2 -14 -10 -4 -11 -13 -14 -33 -9 -16 4 -25 3
-21 -1 9 -10 150 -36 165 -31 6 3 13 0 15 -6 2 -6 29 -11 61 -12 31 0 57 -4
57 -7 0 -3 6 -6 13 -7 66 -5 104 -10 117 -15 8 -4 33 -9 55 -12 22 -2 63 -9
90 -15 280 -59 570 -108 587 -99 13 7 18 7 16 -3 -2 -8 19 -17 62 -24 36 -7
87 -17 115 -22 27 -6 53 -8 58 -5 4 2 13 0 20 -5 23 -18 135 -34 157 -22 16 8
18 8 14 -4 -4 -11 6 -16 38 -21 106 -16 207 -34 243 -45 91 -27 118 -24 196
19 41 23 83 45 94 50 66 29 169 78 230 109 71 36 124 69 94 59 -9 -3 -36 -2
-60 3 -24 4 -78 13 -119 20 -41 6 -101 15 -132 21 -74 12 -155 25 -243 39 -38
6 -95 15 -125 20 -30 5 -98 17 -150 25 -52 9 -171 29 -265 45 -93 16 -188 31
-210 34 -52 7 -139 21 -245 40 -47 8 -98 17 -115 19 -16 3 -59 10 -95 16 -151
27 -174 31 -184 30 -6 0 -42 -13 -81 -29z"/>
<path d="M9692 2315 c-18 -67 -42 -206 -46 -275 l-4 -65 15 35 c28 66 76 95
181 110 56 9 90 9 110 2 17 -6 35 -6 43 -1 8 5 32 9 54 10 l40 1 -35 9 c-19 4
-40 6 -47 4 -7 -2 -15 0 -18 5 -3 5 -29 9 -59 9 -40 0 -69 7 -112 29 -60 30
-99 64 -92 79 3 4 -1 26 -7 48 l-12 40 -11 -40z"/>
<path d="M4260 2204 c-63 -7 -124 -13 -135 -14 -15 -1 -17 -3 -5 -8 8 -4 16
-22 17 -41 4 -95 110 -81 229 31 17 16 44 33 60 38 28 8 27 8 -11 8 -22 0 -92
-6 -155 -14z"/>
<path d="M4540 2156 c-25 -19 -63 -50 -85 -70 -67 -60 -110 -75 -292 -101
-219 -32 -216 -32 -235 8 -30 63 -138 89 -191 46 -15 -11 -32 -39 -38 -62 -7
-23 -15 -45 -18 -49 -5 -6 -308 -48 -344 -48 -4 0 -6 -8 -2 -19 5 -17 -13 -21
-222 -50 -126 -18 -237 -34 -248 -36 -11 -1 -27 -3 -35 -4 -12 -1 -12 -3 1
-16 14 -14 41 -12 275 21 222 31 283 36 424 34 167 -1 183 -5 177 -40 -2 -16
-180 -47 -292 -50 -33 -1 -71 -5 -83 -9 -23 -6 -23 -7 20 -50 23 -24 67 -59
96 -79 38 -25 52 -41 52 -58 0 -19 7 -24 38 -29 20 -3 59 -15 86 -25 27 -11
53 -17 59 -13 6 3 7 1 3 -5 -4 -6 8 -16 29 -23 19 -7 35 -16 35 -19 0 -3 9 -6
21 -7 11 -1 62 -23 112 -49 51 -27 209 -108 352 -181 l260 -132 -3 -43 c-2
-23 -5 -44 -7 -46 -2 -3 -44 12 -92 33 -61 26 -105 53 -144 89 -56 52 -96 72
-292 147 -48 19 -96 41 -105 49 -48 42 -50 39 -14 -16 36 -54 45 -61 98 -78
136 -43 314 -135 371 -191 30 -31 63 -90 63 -116 0 -52 -17 -77 -72 -105 -29
-15 -64 -35 -77 -45 -32 -26 -60 -24 -92 7 -17 16 -42 28 -70 31 -24 3 -70 14
-101 24 -32 11 -62 19 -68 19 -5 0 -10 -17 -10 -39 0 -22 -6 -44 -15 -51 -9
-7 -51 -13 -102 -15 -49 -1 -123 -10 -166 -19 -109 -23 -177 -3 -192 57 -4 14
-23 38 -42 53 -39 29 -63 77 -63 124 0 40 31 120 64 163 28 37 27 62 -5 70
-11 3 -19 14 -19 27 0 22 -33 59 -84 96 -25 18 -30 30 -37 83 -5 50 -13 68
-40 99 -19 20 -43 54 -54 75 -19 37 -44 53 -30 20 37 -87 39 -132 9 -180 -18
-29 -64 -31 -71 -4 -5 18 -89 61 -119 61 -7 0 -29 8 -49 17 -28 13 -40 15 -54
6 -31 -19 -77 -6 -134 36 -88 67 -133 141 -123 203 7 46 -10 201 -26 232 -14
27 -49 66 -60 66 -4 0 -8 -6 -8 -13 0 -23 -39 -50 -72 -50 -54 0 -87 62 -52
97 8 9 11 16 7 16 -19 0 -109 -49 -127 -69 -13 -14 -26 -19 -42 -15 -22 6 -24
3 -24 -30 0 -44 -29 -76 -68 -76 -32 0 -55 21 -71 63 l-11 28 -28 -21 c-67
-53 -82 -154 -34 -231 43 -67 80 -93 188 -128 55 -17 117 -41 138 -53 l39 -21
25 29 c13 16 44 50 69 76 43 46 46 47 72 34 26 -15 131 -128 131 -143 0 -16
248 -313 261 -313 4 0 63 -51 131 -113 68 -62 164 -144 213 -182 50 -38 97
-78 105 -89 8 -11 64 -74 125 -138 88 -95 124 -125 180 -155 72 -38 135 -80
147 -99 8 -12 141 -94 152 -94 6 0 60 -25 211 -95 42 -20 162 -65 172 -65 4 0
40 -14 80 -32 l72 -31 -20 -25 c-10 -14 -19 -29 -19 -33 0 -5 430 -9 955 -9
877 0 954 1 948 16 -5 13 -2 15 18 9 13 -4 28 -11 34 -16 26 -24 35 -8 35 61
0 56 3 70 15 70 20 0 37 -44 29 -75 -7 -28 11 -65 31 -65 8 0 17 14 21 34 6
35 -1 60 -15 52 -4 -3 -2 16 4 42 9 35 17 47 31 47 21 0 22 -10 9 -84 -8 -41
-7 -43 14 -36 14 4 31 1 46 -9 31 -21 30 -21 30 16 0 24 5 33 19 36 17 4 18 0
12 -37 -5 -32 -3 -41 8 -41 8 0 18 9 21 20 3 11 12 20 19 20 7 0 33 16 57 35
l44 35 27 -32 c31 -36 49 -32 24 6 -9 14 -16 33 -16 42 0 13 -7 15 -39 9 -25
-4 -41 -2 -46 5 -4 6 -18 16 -32 21 -21 8 -30 6 -49 -12 -25 -23 -23 -25 -38
25 -3 8 -22 18 -43 21 -60 10 -74 16 -68 26 4 5 21 9 40 9 47 0 53 17 12 34
-37 15 -67 50 -67 77 0 23 18 28 57 16 25 -8 33 -16 33 -34 0 -20 4 -24 25
-21 15 2 29 -4 39 -17 8 -11 18 -16 23 -12 4 5 0 14 -10 21 -9 7 -17 16 -17
20 0 8 -53 101 -84 148 -16 25 -16 25 10 20 18 -3 40 -24 69 -66 71 -100 125
-143 125 -99 0 22 -48 83 -66 83 -23 0 -16 37 9 44 17 5 30 -2 55 -30 31 -33
33 -39 27 -81 -6 -40 -3 -49 22 -82 16 -20 33 -45 37 -55 7 -19 8 -19 29 3 22
22 22 22 2 36 -56 40 -59 55 -10 55 19 0 57 12 85 28 l49 27 22 -22 c27 -27
30 -71 12 -188 -13 -81 -30 -109 -88 -143 -16 -9 24 -11 180 -12 l201 0 -1 57
c0 32 -6 68 -13 80 -6 12 -12 28 -12 35 0 7 -7 26 -16 43 -8 16 -13 38 -11 47
8 30 -21 239 -37 262 -8 12 -33 28 -56 35 -40 12 -42 11 -84 -23 -40 -32 -97
-59 -153 -73 -18 -4 -23 1 -32 33 -6 22 -11 58 -11 82 0 29 -4 41 -11 36 -7
-4 -10 -26 -6 -60 4 -34 1 -56 -6 -63 -19 -15 -68 -1 -78 23 -8 17 -20 21 -61
23 -27 1 -56 7 -64 14 -7 6 -43 11 -79 10 -36 0 -65 4 -65 8 0 11 25 21 51 21
29 0 23 26 -11 50 -44 31 -38 42 22 39 65 -4 72 11 24 53 -20 17 -36 37 -36
44 0 6 15 23 33 37 18 14 56 49 83 78 27 29 72 76 99 105 l50 51 100 6 c100 7
218 39 272 74 28 18 53 63 53 93 0 25 -14 25 -48 1 -39 -27 -91 -47 -144 -55
-39 -6 -51 -3 -83 19 -21 14 -42 25 -46 25 -5 0 -27 -16 -48 -35 -31 -29 -45
-34 -65 -29 -17 4 -35 0 -53 -11 -30 -20 -432 -80 -471 -70 -12 3 -35 -1 -50
-9 -25 -13 -30 -12 -62 10 -40 28 -70 29 -190 10 -77 -13 -87 -17 -115 -49
-24 -28 -34 -34 -51 -27 -14 5 -31 4 -46 -5 -38 -19 -100 -24 -128 -9 -22 10
-54 8 -200 -12 -96 -13 -215 -29 -265 -35 -61 -8 -95 -18 -105 -29 -15 -17
-93 -31 -192 -34 -44 -2 -48 0 -48 22 0 15 7 26 19 29 13 3 21 17 25 44 5 34
9 39 34 39 15 0 299 34 632 75 1533 190 1566 195 1639 237 36 20 61 18 61 -7
0 -28 30 -15 89 39 95 87 126 103 211 111 138 12 202 26 260 55 33 16 94 39
137 50 120 32 224 71 268 100 22 15 66 40 98 56 32 15 65 39 73 52 9 14 11 22
6 18 -11 -7 -188 -18 -257 -16 -22 0 -59 -6 -82 -14 -23 -8 -79 -18 -125 -22
-46 -3 -111 -17 -147 -30 -44 -17 -84 -24 -131 -24 -59 0 -72 -3 -104 -29 -41
-33 -104 -48 -135 -32 -27 15 -30 14 -40 -12 -9 -24 -11 -24 -153 -22 -170 2
-221 14 -265 62 -32 34 -62 41 -71 16 -2 -8 5 -13 18 -13 25 0 70 -45 70 -71
0 -17 -23 -25 -54 -20 -5 1 -16 -1 -24 -4 -13 -5 -12 -8 4 -20 26 -20 13 -19
-101 11 -55 15 -111 26 -125 26 -14 0 -148 49 -298 109 -280 111 -306 119
-975 290 -30 8 -39 16 -44 39 -3 19 -10 27 -17 22 -6 -3 -19 -7 -28 -8 -10 -1
-25 -2 -33 -3 -35 -3 -2 -51 48 -71 19 -8 20 -9 3 -9 -10 -1 -54 -11 -97 -23
-64 -17 -79 -25 -79 -41 0 -11 -5 -17 -12 -14 -7 2 -39 13 -71 23 -31 10 -56
22 -55 26 2 5 23 33 48 63 42 51 46 53 54 34 8 -17 15 -19 44 -14 19 4 56 15
81 25 l46 19 -46 -6 c-50 -6 -86 2 -431 93 -115 30 -218 54 -230 54 -13 0 -43
-16 -68 -34z m485 -356 c61 -6 119 -12 130 -14 11 -3 24 -5 28 -5 5 -1 6 -5 3
-9 -6 -10 -206 -8 -391 3 -124 8 -128 9 -90 21 50 15 176 17 320 4z m-1309
-198 c24 -66 30 -94 21 -97 -7 -3 -50 -1 -96 3 -78 6 -84 9 -88 30 -2 13 3 36
11 50 7 15 20 41 27 57 21 48 31 56 62 53 27 -3 32 -9 63 -96z m33 49 c32 -62
46 -68 81 -33 16 17 30 38 30 46 0 16 5 19 35 19 91 0 102 -3 113 -28 18 -39
15 -45 -20 -45 -18 0 -51 -5 -73 -11 -105 -27 -121 -30 -143 -24 -23 6 -42 39
-56 98 -9 38 9 27 33 -22z m1770 -24 c6 -8 16 -38 21 -67 6 -30 17 -64 25 -77
21 -32 19 -53 -6 -53 -35 0 -11 -18 34 -25 23 -4 50 -14 59 -22 19 -17 43 -81
34 -90 -8 -8 -347 -34 -357 -27 -5 3 -9 19 -9 35 0 22 9 38 32 57 63 54 78 72
78 96 0 13 -7 31 -15 39 -8 8 -11 17 -8 21 3 3 1 11 -5 19 -27 32 29 106 79
107 15 0 32 -6 38 -13z m-1483 -83 c23 -54 19 -64 -24 -64 -62 0 -206 21 -219
32 -22 17 -15 28 18 28 17 0 39 5 49 10 32 17 123 37 143 32 11 -3 25 -20 33
-38z m1618 40 c9 -3 16 -17 16 -31 0 -19 3 -23 13 -15 6 5 104 13 222 16 116
4 226 9 245 12 37 4 219 -8 360 -26 84 -11 140 -34 123 -51 -11 -11 -151 -25
-383 -39 -212 -13 -439 -35 -447 -44 -4 -3 26 -6 66 -6 86 0 86 -15 0 -24 -57
-7 -62 -5 -84 18 -14 15 -34 25 -47 25 -22 -2 -22 -2 -1 -6 12 -2 26 -17 34
-34 15 -36 3 -49 -47 -49 -25 0 -33 6 -47 35 -12 25 -25 37 -46 41 -25 5 -29
11 -29 39 0 18 -5 42 -11 53 -16 30 -14 49 9 72 21 21 29 23 54 14z m-288 -63
c6 -18 18 -38 27 -43 23 -12 21 -45 -3 -58 -11 -6 -20 -8 -20 -5 0 3 -6 1 -12
-5 -7 -6 -27 -20 -45 -30 -21 -12 -35 -31 -41 -52 -9 -37 -37 -49 -45 -19 -5
20 36 67 58 66 15 0 18 65 4 92 -10 19 -10 29 4 59 23 47 57 45 73 -5z m1432
23 c20 -9 74 -27 119 -39 92 -26 106 -32 101 -46 -3 -9 -167 -69 -187 -69 -10
0 -111 145 -111 159 0 16 35 13 78 -5z m-1558 -27 c0 -12 9 -40 19 -60 l19
-38 -53 -34 c-29 -19 -56 -43 -59 -53 -6 -17 -24 -21 -139 -31 -72 -6 -157
-16 -187 -21 -30 -6 -141 -21 -246 -35 l-191 -25 -59 24 c-143 57 -170 75
-117 77 73 2 313 26 274 28 -23 0 -108 -4 -187 -10 l-144 -12 -90 44 c-92 45
-107 59 -67 60 12 0 42 2 67 4 25 2 128 9 230 15 516 30 775 51 759 60 -7 5
10 11 42 14 72 8 112 13 122 15 4 0 7 -9 7 -22z m1554 -118 c18 -30 21 -31 65
-25 47 6 48 6 75 -35 15 -23 23 -46 19 -50 -9 -9 -260 64 -276 80 -13 13 0 31
37 47 46 20 60 17 80 -17z m-1916 -343 c2 -3 5 -83 3 -103 0 -6 -10 -15 -21
-18 -12 -4 -20 -15 -20 -29 0 -30 -5 -34 -35 -28 -30 5 -35 45 -7 61 16 10 16
10 -2 11 -16 0 -18 6 -13 39 5 43 -6 66 -38 75 -11 3 14 3 55 0 41 -3 76 -7
78 -8z m1577 -96 c4 -6 -1 -34 -11 -61 -21 -59 -62 -105 -78 -89 -16 16 -24
12 -41 -17 -14 -26 -15 -23 -12 67 2 91 3 94 27 101 39 11 108 10 115 -1z
m-740 -134 c61 -13 135 -41 145 -54 3 -4 17 -15 32 -25 16 -10 32 -33 39 -56
10 -35 9 -44 -12 -82 -33 -59 -123 -107 -228 -121 -15 -2 -31 -15 -41 -33 -24
-44 -97 -85 -173 -98 -58 -10 -68 -9 -85 6 -10 9 -41 20 -68 23 -64 9 -95 25
-133 71 -41 50 -48 90 -25 154 57 158 326 264 549 215z"/>
<path d="M9294 1691 c-87 -40 -165 -159 -149 -230 13 -58 65 -40 65 23 0 68
92 154 174 163 53 6 61 14 46 43 -14 26 -79 27 -136 1z"/>
<path d="M9475 1619 c-25 -23 -45 -46 -45 -51 0 -5 14 -23 30 -40 17 -16 30
-38 30 -49 0 -29 18 -23 36 14 21 42 54 77 72 77 11 0 13 -9 8 -42 -5 -34 -4
-39 5 -24 19 31 3 83 -37 121 -20 19 -41 35 -46 35 -4 0 -29 -19 -53 -41z"/>
<path d="M1049 1534 c-11 -32 -12 -106 -5 -434 3 -135 1 -339 -4 -455 -6 -115
-13 -308 -17 -427 l-6 -218 40 0 40 0 7 107 c16 261 19 780 6 963 -15 196 -16
267 -11 394 3 59 0 80 -10 87 -22 14 -29 11 -40 -17z"/>
<path d="M9231 1376 c-43 -44 -44 -45 -27 -70 9 -14 23 -26 31 -26 8 0 15 -6
15 -14 0 -16 22 -26 58 -26 43 0 57 15 27 28 -34 16 -32 25 17 61 38 28 40 31
17 31 -14 1 -34 13 -49 30 -13 17 -29 30 -35 30 -6 0 -30 -20 -54 -44z"/>
<path d="M7560 1301 c0 -51 22 -95 68 -138 25 -24 40 -43 33 -43 -9 0 -9 -5 0
-22 7 -13 17 -26 23 -30 8 -6 6 -11 -4 -17 -11 -8 -9 -12 13 -20 16 -6 37 -11
48 -11 10 0 19 -5 19 -10 0 -6 11 -21 25 -34 14 -13 25 -28 25 -33 0 -6 6 -16
14 -22 23 -19 25 -61 10 -165 -8 -55 -11 -103 -6 -108 4 -4 30 17 57 48 28 31
71 77 96 103 26 27 50 57 53 68 15 47 -69 135 -139 146 -62 10 -95 25 -95 42
0 26 -35 79 -86 130 -30 29 -54 57 -54 60 0 13 -74 85 -87 85 -8 0 -13 -12
-13 -29z"/>
<path d="M8110 1041 c-13 -25 6 -81 28 -82 21 -2 218 -6 587 -13 555 -11 753
-7 870 14 28 5 66 12 85 15 55 9 70 15 70 30 0 11 -110 33 -170 34 -8 0 -127
2 -265 5 -137 3 -462 8 -722 11 -456 5 -473 4 -483 -14z"/>
<path d="M6814 875 c-14 -33 -14 -45 -3 -77 7 -22 19 -47 26 -56 12 -15 13
-13 8 16 -8 39 7 42 65 12 40 -20 75 -25 104 -14 25 10 19 33 -11 41 -42 10
-125 61 -150 91 l-22 26 -17 -39z"/>
<path d="M7589 284 c-10 -12 -15 -53 -17 -151 l-4 -133 36 0 36 0 0 54 c0 60
-17 197 -29 228 -7 19 -8 19 -22 2z"/>
</g>
</svg>
